HIERARCHY
ROOT Hips
{
	OFFSET 0.000000 0.000000 0.000000
	CHANNELS 6 Xposition Yposition Zposition Xrotation Yrotation Zrotation
	JOINT LeftUpLeg_virtual
	{
		OFFSET 0.000000 0.000000 0.000000
		CHANNELS 3 Xrotation Yrotation Zrotation
		JOINT LeftUpLeg
		{
			OFFSET 13.026900 -6.336304 -1.092800
			CHANNELS 3 Xrotation Yrotation Zrotation
			JOINT LeftLeg
			{
				OFFSET 0.524474 -46.096886 9.782700
				CHANNELS 3 Xrotation Yrotation Zrotation
				JOINT LeftFoot
				{
					OFFSET -0.524474 -53.427422 -12.948200
					CHANNELS 3 Xrotation Yrotation Zrotation
					JOINT LeftToeBase
					{
						OFFSET 0.192200 -14.009700 16.364100
						CHANNELS 3 Xrotation Yrotation Zrotation
						JOINT LeftToe_End
						{
							OFFSET -1.784700 -0.561700 9.474800
							CHANNELS 3 Xrotation Yrotation Zrotation
							End Site
							{
								OFFSET 0 0 0
							}
						}
					}
				}
			}
		}
	}
	JOINT RightUpLeg_virtual
	{
		OFFSET 0.000000 0.000000 0.000000
		CHANNELS 3 Xrotation Yrotation Zrotation
		JOINT RightUpLeg
		{
			OFFSET -12.883000 -6.336304 -1.092800
			CHANNELS 3 Xrotation Yrotation Zrotation
			JOINT RightLeg
			{
				OFFSET -0.524587 -46.096825 9.782800
				CHANNELS 3 Xrotation Yrotation Zrotation
				JOINT RightFoot
				{
					OFFSET 0.524587 -53.427383 -12.948300
					CHANNELS 3 Xrotation Yrotation Zrotation
					JOINT RightToeBase
					{
						OFFSET -0.192200 -14.009700 16.364100
						CHANNELS 3 Xrotation Yrotation Zrotation
						JOINT RightToe_End
						{
							OFFSET 1.784700 -0.561700 9.474800
							CHANNELS 3 Xrotation Yrotation Zrotation
							End Site
							{
								OFFSET 0 0 0
							}
						}
					}
				}
			}
		}
	}
	JOINT Spine_virtual
	{
		OFFSET 0.000000 0.000000 0.000000
		CHANNELS 3 Xrotation Yrotation Zrotation
		JOINT Spine
		{
			OFFSET 0.072000 7.257294 -0.789700
			CHANNELS 3 Xrotation Yrotation Zrotation
			JOINT Spine1
			{
				OFFSET 0.000000 12.508769 -0.658067
				CHANNELS 3 Xrotation Yrotation Zrotation
				JOINT Spine1_split
				{
					OFFSET 0.000000 12.508769 -0.658067
					CHANNELS 3 Xrotation Yrotation Zrotation
					JOINT Spine2
					{
						OFFSET 0.000000 12.508769 -0.658067
						CHANNELS 3 Xrotation Yrotation Zrotation
						JOINT Neck_virtual
						{
							OFFSET 0.000000 0.000000 0.000000
							CHANNELS 3 Xrotation Yrotation Zrotation
							JOINT Neck
							{
								OFFSET 0.000000 14.033295 7.520400
								CHANNELS 3 Xrotation Yrotation Zrotation
								JOINT Head
								{
									OFFSET 0.000000 8.198502 5.703100
									CHANNELS 3 Xrotation Yrotation Zrotation
									JOINT HeadTop_End
									{
										OFFSET 0.000000 17.760803 13.332701
										CHANNELS 3 Xrotation Yrotation Zrotation
										End Site
										{
											OFFSET 0 0 0
										}
									}
								}
							}
						}
						JOINT LeftShoulder_virtual
						{
							OFFSET 0.000000 0.000000 0.000000
							CHANNELS 3 Xrotation Yrotation Zrotation
							JOINT LeftShoulder
							{
								OFFSET 6.292450 5.785301 -0.669000
								CHANNELS 3 Xrotation Yrotation Zrotation
								JOINT LeftShoulder_split
								{
									OFFSET 6.292450 5.785301 -0.669000
									CHANNELS 3 Xrotation Yrotation Zrotation
									JOINT LeftArm
									{
										OFFSET 13.907140 -6.093903 1.965100
										CHANNELS 3 Xrotation Yrotation Zrotation
										JOINT LeftForeArm
										{
											OFFSET 34.140198 0.000000 0.000000
											CHANNELS 3 Xrotation Yrotation Zrotation
											JOINT LeftHand
											{
												OFFSET 40.960209 0.000000 0.000000
												CHANNELS 3 Xrotation Yrotation Zrotation
												End Site
												{
													OFFSET 0 0 0
												}
											}
										}
									}
								}
							}
						}
						JOINT RightShoulder_virtual
						{
							OFFSET 0.000000 0.000000 0.000000
							CHANNELS 3 Xrotation Yrotation Zrotation
							JOINT RightShoulder
							{
								OFFSET -6.292450 5.785301 -0.669000
								CHANNELS 3 Xrotation Yrotation Zrotation
								JOINT RightShoulder_split
								{
									OFFSET -6.292450 5.785301 -0.669000
									CHANNELS 3 Xrotation Yrotation Zrotation
									JOINT RightArm
									{
										OFFSET -13.907140 -6.093903 1.965100
										CHANNELS 3 Xrotation Yrotation Zrotation
										JOINT RightForeArm
										{
											OFFSET -34.140198 0.000000 0.000000
											CHANNELS 3 Xrotation Yrotation Zrotation
											JOINT RightHand
											{
												OFFSET -40.960209 0.000000 0.000000
												CHANNELS 3 Xrotation Yrotation Zrotation
												End Site
												{
													OFFSET 0 0 0
												}
											}
										}
									}
								}
							}
						}
					}
				}
			}
		}
	}
}
MOTION
Frames: 6
Frame Time: 0.03333333
6.626844 89.352608 -11.689505 0.000000 0.000000 0.000000 -8.394390 4.954875 1.304190 -36.189604 -4.519821 13.649362 66.459318 -3.573432 1.764552 -16.332915 -0.835751 -14.495746 -3.776766 -4.334481 -0.097456 0.000000 0.000000 0.000000 -7.921300 4.480343 1.054398 -30.151938 -8.705207 -13.229078 66.507014 6.162349 -4.969602 -25.707087 -17.679822 18.792036 1.815904 5.209121 -11.145180 0.000000 0.000000 0.000000 -8.904450 6.471954 0.954374 15.604165 2.750185 2.636461 11.660135 -3.035985 2.725603 0.151863 -0.422873 0.052137 0.000000 0.000000 0.000000 13.375601 -0.900825 1.888427 10.836456 4.213389 2.186980 22.425693 -3.570333 -19.043297 0.000000 0.000000 0.000000 13.283408 -2.614654 1.156403 2.097038 -16.453188 -9.036513 9.174311 -3.456447 -4.324422 -32.764534 -13.927009 -47.749808 -45.084395 -69.346719 -52.309919 0.000000 0.000000 0.000000 13.953008 -1.950377 2.226303 3.187208 -2.552088 22.442605 9.292125 4.690143 5.905865 -37.329726 39.040586 55.062776 -60.141837 72.625647 54.982797 0.000000 0.000000 0.000000 
6.519159 90.205078 -11.253187 0.000000 0.000000 0.000000 -8.871688 4.849100 1.412464 -34.312968 -4.079633 13.413925 65.317625 -3.407498 1.897423 -16.820813 -0.483697 -14.460040 -3.401683 -4.390383 -0.133230 0.000000 0.000000 0.000000 -8.350136 4.269293 1.166144 -28.861825 -9.167464 -13.036249 65.502955 6.141177 -4.931247 -25.616208 -17.321025 18.442689 1.685906 5.181392 -11.083830 0.000000 0.000000 0.000000 -9.255510 6.225241 1.158150 16.115893 2.812421 3.209429 10.661763 -3.392826 2.322148 0.082120 -0.490229 0.022411 0.000000 0.000000 0.000000 12.394267 -1.270435 1.541695 10.227856 4.642094 0.617834 21.973410 -2.948048 -17.802668 0.000000 0.000000 0.000000 12.653888 -2.920879 0.960760 1.737789 -15.092324 -9.895722 9.315403 -3.817010 -4.623033 -31.005415 -15.794676 -48.554859 -35.888317 -69.285958 -42.719357 0.000000 0.000000 0.000000 13.155113 -2.344046 1.766710 3.369810 -1.963893 22.414656 9.901172 3.463538 5.629567 -34.815168 39.229649 54.851388 -52.836465 74.297678 47.540449 0.000000 0.000000 0.000000 
6.328990 91.292664 -10.661741 0.000000 0.000000 0.000000 -9.324574 4.696372 1.566716 -32.287387 -3.646618 13.107981 63.738601 -3.255566 2.070563 -17.169806 -0.051141 -14.430912 -2.669562 -4.434919 -0.116877 0.000000 0.000000 0.000000 -8.787256 4.139020 1.346821 -27.326667 -9.813347 -12.860959 64.180084 6.122905 -4.855073 -25.416660 -16.963079 18.027779 1.454688 5.179085 -11.014026 0.000000 0.000000 0.000000 -9.689106 6.105567 1.383221 16.645111 2.848362 3.656449 9.823622 -3.661877 1.971350 0.002219 -0.514842 0.048369 0.000000 0.000000 0.000000 11.577310 -1.560939 1.212074 9.641697 5.104059 -0.933743 20.243801 -2.442725 -16.486040 0.000000 0.000000 0.000000 12.064532 -3.169286 0.824864 1.425280 -14.497415 -10.795653 8.772343 -3.899856 -4.749437 -28.027890 -17.754549 -48.745209 -27.172292 -68.588083 -33.135198 0.000000 0.000000 0.000000 12.320575 -2.700971 1.383619 3.403531 -1.346724 22.396581 9.882112 2.296173 5.543669 -30.728464 39.457624 53.035186 -52.465907 77.731432 47.391759 0.000000 0.000000 0.000000 
6.047882 92.472321 -10.048357 0.000000 0.000000 0.000000 -9.679274 4.489394 1.707278 -30.346995 -3.341757 12.784372 61.973674 -3.181484 2.294737 -17.282448 0.321704 -14.436163 -1.849955 -4.483489 -0.033431 0.000000 0.000000 0.000000 -9.207028 4.110314 1.550336 -25.760400 -10.508529 -12.701580 62.688631 6.112936 -4.728368 -25.088391 -16.609195 17.608438 1.167468 5.204873 -10.977205 0.000000 0.000000 0.000000 -10.041466 6.109595 1.512894 17.139818 2.874637 3.967812 9.188472 -3.825137 1.716887 0.037886 -0.535341 0.110380 0.000000 0.000000 0.000000 11.008371 -1.757583 1.006078 8.990392 5.587242 -2.403276 17.530043 -2.053240 -15.328090 0.000000 0.000000 0.000000 11.498600 -3.332625 0.788744 1.229512 -14.474984 -11.557163 7.704012 -3.809252 -4.968390 -24.903862 -18.920485 -48.296356 -20.608387 -68.107143 -25.244097 0.000000 0.000000 0.000000 11.513289 -2.987872 1.150676 3.318123 -0.841078 22.287980 9.135282 1.519017 5.879788 -25.748975 38.816679 50.596723 -61.284262 81.779993 56.643664 0.000000 0.000000 0.000000 
5.742103 93.611168 -9.455996 0.000000 0.000000 0.000000 -9.912368 4.299508 1.791965 -28.671143 -3.251209 12.477747 60.271106 -3.177328 2.550590 -17.205272 0.604036 -14.449511 -1.093621 -4.530229 0.072290 0.000000 0.000000 0.000000 -9.533674 4.188665 1.698839 -24.288349 -11.091205 -12.552051 61.205346 6.100285 -4.540486 -24.718455 -16.283316 17.198375 0.981718 5.246123 -10.985684 0.000000 0.000000 0.000000 -10.241345 6.166372 1.524756 17.493854 2.884890 4.176321 8.736031 -3.890917 1.545043 0.107484 -0.531597 0.161433 0.000000 0.000000 0.000000 10.651599 -1.868002 0.959130 8.214768 6.068714 -3.661429 14.144724 -1.864617 -14.477392 0.000000 0.000000 0.000000 11.002547 -3.403770 0.803166 1.182606 -14.691764 -12.189442 6.137235 -3.726156 -5.306471 -22.063060 -18.532200 -47.884568 -15.886544 -68.727365 -18.863963 0.000000 0.000000 0.000000 10.852748 -3.184214 1.051045 3.154508 -0.544720 22.098976 8.361870 1.517176 6.271043 -20.984196 36.736855 48.783441 -81.857775 84.752040 77.588046 0.000000 0.000000 0.000000 
5.462667 94.617867 -8.969271 0.000000 0.000000 0.000000 -10.032300 4.182971 1.784211 -27.367222 -3.366015 12.221512 58.783927 -3.257112 2.833409 -16.978008 0.800449 -14.547830 -0.552978 -4.563057 0.158929 0.000000 0.000000 0.000000 -9.778862 4.335909 1.756399 -22.990173 -11.476608 -12.383723 59.819405 6.066939 -4.306100 -24.432490 -16.015813 16.756156 1.035635 5.287125 -11.041488 0.000000 0.000000 0.000000 -10.285403 6.212345 1.432106 17.635309 2.879921 4.287581 8.439163 -3.888877 1.407119 0.213828 -0.480058 0.173262 0.000000 0.000000 0.000000 10.464285 -1.907366 1.008844 7.346633 6.504514 -4.571937 10.515210 -1.851393 -13.935724 0.000000 0.000000 0.000000 10.589135 -3.404400 0.792823 1.239383 -14.881772 -12.621776 4.666378 -3.722996 -5.550563 -19.828227 -16.460109 -48.267000 -10.989117 -70.552009 -12.258880 0.000000 0.000000 0.000000 10.379952 -3.271248 1.043516 3.004830 -0.472380 21.864028 7.846610 2.039294 6.347005 -17.807032 33.480051 48.647896 -99.994086 86.175308 95.899735 0.000000 0.000000 0.000000 
